<svg width="38" height="40" viewBox="0 0 38 40" fill="none" xmlns="http://www.w3.org/2000/svg">
<path d="M18.8125 1C8.97525 1 1 9.395 1 19.75C1 30.105 8.97525 38.5 18.8125 38.5C28.6497 38.5 36.625 30.105 36.625 19.75C36.625 9.395 28.6497 1 18.8125 1ZM2.63519 22.0544L7.72184 23.3869C7.69987 23.6394 7.6785 23.8925 7.6785 24.1694C7.67665 26.2295 8.1684 28.2568 9.10825 30.0637L6.54681 31.0775C4.42651 28.5414 3.06563 25.4022 2.63519 22.0544ZM18.8125 36.9375C14.7441 36.9375 11.0219 35.36 8.15944 32.7587L10.2827 31.9056C12.3264 34.5462 15.3901 36.2294 18.8125 36.2294C22.2349 36.2294 25.2986 34.5462 27.3429 31.9056L29.4662 32.7587C26.6043 35.3594 22.8821 36.9375 18.8125 36.9375ZM9.16347 24.1688C9.16347 20.5494 11.3817 19.8225 14.9602 19.8225C15.6163 19.8225 16.2813 19.8463 16.9327 19.8694C18.1855 19.9156 19.4395 19.9156 20.6923 19.8694C21.3454 19.8463 22.0098 19.8225 22.6647 19.8225C26.2445 19.8225 28.4621 20.5494 28.4621 24.1688C28.4621 29.9575 24.1331 34.6669 18.8125 34.6669C13.4919 34.6669 9.16347 29.9575 9.16347 24.1688ZM31.0782 31.0769L28.5168 30.0631C29.4566 28.2561 29.9483 26.2288 29.9465 24.1688C29.9465 23.8919 29.9257 23.6388 29.9037 23.3862L34.9898 22.0538C34.5604 25.4019 33.1994 28.5414 31.0782 31.0769ZM29.3795 21.27C27.9948 18.27 24.4032 18.2606 22.6647 18.2606C21.9932 18.2606 21.3116 18.2844 20.6424 18.3088C19.4233 18.3538 18.2029 18.3538 16.9838 18.3088C16.3096 18.2805 15.635 18.2644 14.9602 18.2606C13.2217 18.2606 9.63075 18.2706 8.24613 21.27L2.48556 19.7712L2.48438 19.75C2.48438 16.0569 3.60063 12.6344 5.49113 9.82938C5.70903 10.1431 6.07003 10.42 6.22262 10.2794C7.17179 9.43594 8.28594 8.82318 9.48575 8.48473C10.6856 8.14627 11.9415 8.09046 13.1642 8.32125C13.5085 8.39187 13.8125 7.05812 13.3951 6.97375C11.0694 6.53924 8.67292 7.00925 6.65191 8.29625C9.64441 4.78 13.9859 2.5625 18.8125 2.5625C23.7258 2.5625 28.1362 4.86188 31.1316 8.48812C29.0796 7.1265 26.6187 6.61991 24.2305 7.0675C23.8131 7.15188 24.1159 8.48625 24.4603 8.415C26.935 7.9475 29.4816 8.665 31.4018 10.3731C31.5627 10.52 31.9546 10.2094 32.1665 9.87813C34.1045 12.7655 35.1436 16.2147 35.1406 19.75V19.7706L29.3795 21.27Z" fill="#DC1E1E"/>
<path d="M22.0181 12.5331C21.5644 12.6981 21.2224 12.7181 21.2806 12.9931C22.4741 18.4756 27.3398 19.8469 30.9789 15.7287C31.16 15.5206 30.8733 15.3237 30.5592 14.94C27.6248 16.2619 23.753 14.9706 22.0181 12.5331Z" fill="#DC1E1E"/>
<path d="M15.9831 12.5319C14.0706 15.2194 10.1038 16.1394 7.44319 14.9413C7.1291 15.3231 6.84113 15.5206 7.02222 15.7288C10.6613 19.8488 15.5259 18.4756 16.7217 12.9931C16.7787 12.7181 16.4379 12.6975 15.9831 12.5319Z" fill="#DC1E1E"/>
</svg>
